<?xml version="1.0" encoding="utf-8" standalone="no"?>
<!DOCTYPE svg PUBLIC "-//W3C//DTD SVG 1.1//EN"
  "http://www.w3.org/Graphics/SVG/1.1/DTD/svg11.dtd">
<svg xmlns:xlink="http://www.w3.org/1999/xlink" width="274.36pt" height="268.6pt" viewBox="0 0 274.36 268.6" xmlns="http://www.w3.org/2000/svg" version="1.1">
 <metadata>
  <rdf:RDF xmlns:dc="http://purl.org/dc/elements/1.1/" xmlns:cc="http://creativecommons.org/ns#" xmlns:rdf="http://www.w3.org/1999/02/22-rdf-syntax-ns#">
   <cc:Work>
    <dc:type rdf:resource="http://purl.org/dc/dcmitype/StillImage"/>
    <dc:date>2025-10-01T21:20:52.531032</dc:date>
    <dc:format>image/svg+xml</dc:format>
    <dc:creator>
     <cc:Agent>
      <dc:title>Matplotlib v3.10.0, https://matplotlib.org/</dc:title>
     </cc:Agent>
    </dc:creator>
   </cc:Work>
  </rdf:RDF>
 </metadata>
 <defs>
  <style type="text/css">*{stroke-linejoin: round; stroke-linecap: butt}</style>
 </defs>
 <g id="figure_1">
  <g id="patch_1">
   <path d="M 0 268.6 
L 274.36 268.6 
L 274.36 0 
L 0 0 
z
" style="fill: #ffffff"/>
  </g>
  <g id="axes_1">
   <g id="patch_2">
    <path d="M 36.43 110.72 
L 134.28 110.72 
L 134.28 37.8 
L 36.43 37.8 
z
" style="fill: #ffffff"/>
   </g>
   <g id="matplotlib.axis_1">
    <g id="xtick_1">
     <g id="line2d_1">
      <defs>
       <path id="m4e7bb9d0d6" d="M 0 0 
L 0 3.5 
" style="stroke: #222222; stroke-width: 0.8"/>
      </defs>
      <g>
       <use xlink:href="#m4e7bb9d0d6" x="70.529242" y="110.72" style="fill: #222222; stroke: #222222; stroke-width: 0.8"/>
      </g>
     </g>
     <g id="text_1">
      <!-- 0 -->
      <g style="fill: #222222" transform="translate(67.748774 124.893437) scale(0.1 -0.1)">
       <defs>
        <path id="Helvetica-30" d="M 1731 4475 
Q 2600 4475 2988 3759 
Q 3288 3206 3288 2244 
Q 3288 1331 3016 734 
Q 2622 -122 1728 -122 
Q 922 -122 528 578 
Q 200 1163 200 2147 
Q 200 2909 397 3456 
Q 766 4475 1731 4475 
z
M 1725 391 
Q 2163 391 2422 778 
Q 2681 1166 2681 2222 
Q 2681 2984 2493 3476 
Q 2306 3969 1766 3969 
Q 1269 3969 1039 3501 
Q 809 3034 809 2125 
Q 809 1441 956 1025 
Q 1181 391 1725 391 
z
" transform="scale(0.015625)"/>
       </defs>
       <use xlink:href="#Helvetica-30"/>
      </g>
     </g>
    </g>
    <g id="xtick_2">
     <g id="line2d_2">
      <g>
       <use xlink:href="#m4e7bb9d0d6" x="119.948434" y="110.72" style="fill: #222222; stroke: #222222; stroke-width: 0.8"/>
      </g>
     </g>
     <g id="text_2">
      <!-- 5 -->
      <g style="fill: #222222" transform="translate(117.167966 124.893437) scale(0.1 -0.1)">
       <defs>
        <path id="Helvetica-35" d="M 791 1141 
Q 847 659 1238 475 
Q 1438 381 1700 381 
Q 2200 381 2440 700 
Q 2681 1019 2681 1406 
Q 2681 1875 2395 2131 
Q 2109 2388 1709 2388 
Q 1419 2388 1211 2275 
Q 1003 2163 856 1963 
L 369 1991 
L 709 4400 
L 3034 4400 
L 3034 3856 
L 1131 3856 
L 941 2613 
Q 1097 2731 1238 2791 
Q 1488 2894 1816 2894 
Q 2431 2894 2859 2497 
Q 3288 2100 3288 1491 
Q 3288 856 2895 371 
Q 2503 -113 1644 -113 
Q 1097 -113 676 195 
Q 256 503 206 1141 
L 791 1141 
z
" transform="scale(0.015625)"/>
       </defs>
       <use xlink:href="#Helvetica-35"/>
      </g>
     </g>
    </g>
   </g>
   <g id="matplotlib.axis_2">
    <g id="ytick_1">
     <g id="line2d_3">
      <defs>
       <path id="m11152ce557" d="M 0 0 
L -3.5 0 
" style="stroke: #222222; stroke-width: 0.8"/>
      </defs>
      <g>
       <use xlink:href="#m11152ce557" x="36.43" y="86.413333" style="fill: #222222; stroke: #222222; stroke-width: 0.8"/>
      </g>
     </g>
     <g id="text_3">
      <!-- 0 -->
      <g style="fill: #222222" transform="translate(23.869063 90.000052) scale(0.1 -0.1)">
       <use xlink:href="#Helvetica-30"/>
      </g>
     </g>
    </g>
    <g id="ytick_2">
     <g id="line2d_4">
      <g>
       <use xlink:href="#m11152ce557" x="36.43" y="54.004444" style="fill: #222222; stroke: #222222; stroke-width: 0.8"/>
      </g>
     </g>
     <g id="text_4">
      <!-- 2 -->
      <g style="fill: #222222" transform="translate(23.869063 57.591163) scale(0.1 -0.1)">
       <defs>
        <path id="Helvetica-32" d="M 200 0 
Q 231 578 439 1006 
Q 647 1434 1250 1784 
L 1850 2131 
Q 2253 2366 2416 2531 
Q 2672 2791 2672 3125 
Q 2672 3516 2437 3745 
Q 2203 3975 1813 3975 
Q 1234 3975 1013 3538 
Q 894 3303 881 2888 
L 309 2888 
Q 319 3472 525 3841 
Q 891 4491 1816 4491 
Q 2584 4491 2939 4075 
Q 3294 3659 3294 3150 
Q 3294 2613 2916 2231 
Q 2697 2009 2131 1694 
L 1703 1456 
Q 1397 1288 1222 1134 
Q 909 863 828 531 
L 3272 531 
L 3272 0 
L 200 0 
z
" transform="scale(0.015625)"/>
       </defs>
       <use xlink:href="#Helvetica-32"/>
      </g>
     </g>
    </g>
   </g>
   <g id="line2d_5">
    <path d="M 40.877727 86.413352 
L 54.960711 86.303118 
L 58.347758 86.051487 
L 60.843477 85.64334 
L 62.804399 85.108191 
L 64.587055 84.400858 
L 66.369711 83.436654 
L 67.974102 82.318438 
L 69.578492 80.944564 
L 71.361149 79.111897 
L 73.322071 76.738741 
L 75.461258 73.774892 
L 78.135242 69.658164 
L 86.870258 55.828108 
L 88.652914 53.554847 
L 90.079039 52.098172 
L 91.148633 51.319154 
L 92.039961 50.956282 
L 92.753023 50.912829 
L 93.28782 51.060629 
L 93.822617 51.394856 
L 94.357414 51.947736 
L 95.070476 53.080599 
L 95.783539 54.718584 
L 96.674867 57.487275 
L 97.744461 61.664097 
L 100.596711 73.360316 
L 101.666304 76.729803 
L 102.735898 79.36305 
L 103.805492 81.352588 
L 104.875086 82.824868 
L 105.944679 83.89878 
L 107.014273 84.672522 
L 108.262132 85.297653 
L 109.688257 85.756581 
L 111.470914 86.085566 
L 113.966632 86.296745 
L 118.245007 86.396472 
L 129.832273 86.4133 
L 129.832273 86.4133 
" clip-path="url(#paae46d6a31)" style="fill: none; stroke: #b30000; stroke-width: 2; stroke-linecap: square"/>
   </g>
   <g id="line2d_6">
    <path d="M 40.877727 86.341493 
L 42.693126 86.290641 
L 44.508525 86.210596 
L 46.323924 86.089077 
L 48.139323 85.911082 
L 49.954722 85.659365 
L 51.770121 85.315359 
L 53.585519 84.860449 
L 55.400918 84.277424 
L 57.216317 83.551853 
L 59.031716 82.673153 
L 60.847115 81.635194 
L 62.662514 80.436386 
L 64.477913 79.079326 
L 66.293312 77.570127 
L 68.108711 75.917598 
L 69.924109 74.132424 
L 71.739508 72.226457 
L 73.554907 70.212189 
L 75.370306 68.102473 
L 77.185705 65.910533 
L 79.001104 63.65034 
L 80.816503 61.337532 
L 82.631902 58.991183 
L 84.447301 56.637073 
L 86.262699 54.313684 
L 88.078098 52.083396 
L 89.893497 50.053811 
L 91.708896 48.419271 
L 93.524295 47.54334 
L 95.339694 48.109772 
L 97.155093 51.159294 
L 98.970492 57.221207 
L 100.785891 65.075496 
L 102.601289 72.533325 
L 104.416688 78.201205 
L 106.232087 81.896804 
L 108.047486 84.066559 
L 109.862885 85.249309 
L 111.678284 85.858821 
L 113.493683 86.158791 
L 115.309082 86.300546 
L 117.124481 86.365051 
L 118.939879 86.393357 
L 120.755278 86.405344 
L 122.570677 86.410244 
L 124.386076 86.412179 
L 126.201475 86.412916 
L 128.016874 86.413187 
L 129.832273 86.41329 
" clip-path="url(#paae46d6a31)" style="fill: none; stroke-dasharray: 2,3.3; stroke-dashoffset: 0; stroke: #222222; stroke-width: 2"/>
   </g>
   <g id="line2d_7">
    <path d="M 36.43 86.413333 
L 134.28 86.413333 
" clip-path="url(#paae46d6a31)" style="fill: none; stroke: #808080; stroke-linecap: square"/>
   </g>
   <g id="patch_3">
    <path d="M 36.43 110.72 
L 36.43 37.8 
" style="fill: none; stroke: #222222; stroke-width: 0.8; stroke-linejoin: miter; stroke-linecap: square"/>
   </g>
   <g id="patch_4">
    <path d="M 36.43 110.72 
L 134.28 110.72 
" style="fill: none; stroke: #222222; stroke-width: 0.8; stroke-linejoin: miter; stroke-linecap: square"/>
   </g>
   <g id="text_5">
    <!-- $c=2$ -->
    <g style="fill: #222222" transform="translate(39.3655 49.360494) scale(0.09 -0.09)">
     <defs>
      <path id="DejaVuSans-Oblique-63" d="M 3431 3366 
L 3316 2797 
Q 3109 2947 2876 3022 
Q 2644 3097 2394 3097 
Q 2119 3097 1870 3000 
Q 1622 2903 1453 2725 
Q 1184 2453 1037 2087 
Q 891 1722 891 1331 
Q 891 859 1127 628 
Q 1363 397 1844 397 
Q 2081 397 2348 469 
Q 2616 541 2906 684 
L 2797 116 
Q 2547 13 2283 -39 
Q 2019 -91 1741 -91 
Q 1044 -91 669 257 
Q 294 606 294 1253 
Q 294 1797 489 2255 
Q 684 2713 1069 3078 
Q 1331 3328 1684 3456 
Q 2038 3584 2456 3584 
Q 2700 3584 2940 3529 
Q 3181 3475 3431 3366 
z
" transform="scale(0.015625)"/>
      <path id="DejaVuSans-3d" d="M 678 2906 
L 4684 2906 
L 4684 2381 
L 678 2381 
L 678 2906 
z
M 678 1631 
L 4684 1631 
L 4684 1100 
L 678 1100 
L 678 1631 
z
" transform="scale(0.015625)"/>
      <path id="DejaVuSans-32" d="M 1228 531 
L 3431 531 
L 3431 0 
L 469 0 
L 469 531 
Q 828 903 1448 1529 
Q 2069 2156 2228 2338 
Q 2531 2678 2651 2914 
Q 2772 3150 2772 3378 
Q 2772 3750 2511 3984 
Q 2250 4219 1831 4219 
Q 1534 4219 1204 4116 
Q 875 4013 500 3803 
L 500 4441 
Q 881 4594 1212 4672 
Q 1544 4750 1819 4750 
Q 2544 4750 2975 4387 
Q 3406 4025 3406 3419 
Q 3406 3131 3298 2873 
Q 3191 2616 2906 2266 
Q 2828 2175 2409 1742 
Q 1991 1309 1228 531 
z
" transform="scale(0.015625)"/>
     </defs>
     <use xlink:href="#DejaVuSans-Oblique-63" transform="translate(0 0.78125)"/>
     <use xlink:href="#DejaVuSans-3d" transform="translate(74.462891 0.78125)"/>
     <use xlink:href="#DejaVuSans-32" transform="translate(177.734375 0.78125)"/>
    </g>
   </g>
   <g id="PathCollection_1">
    <defs>
     <path id="md6ff0eb3eb" d="M 0 2.236068 
C 0.593012 2.236068 1.161816 2.000462 1.581139 1.581139 
C 2.000462 1.161816 2.236068 0.593012 2.236068 0 
C 2.236068 -0.593012 2.000462 -1.161816 1.581139 -1.581139 
C 1.161816 -2.000462 0.593012 -2.236068 0 -2.236068 
C -0.593012 -2.236068 -1.161816 -2.000462 -1.581139 -1.581139 
C -2.000462 -1.161816 -2.236068 -0.593012 -2.236068 0 
C -2.236068 0.593012 -2.000462 1.161816 -1.581139 1.581139 
C -1.161816 2.000462 -0.593012 2.236068 0 2.236068 
z
" style="stroke: #b30000"/>
    </defs>
    <g clip-path="url(#paae46d6a31)">
     <use xlink:href="#md6ff0eb3eb" x="92.574758" y="50.899862" style="fill: #b30000; stroke: #b30000"/>
    </g>
   </g>
  </g>
  <g id="axes_2">
   <g id="patch_5">
    <path d="M 163.51 110.72 
L 261.36 110.72 
L 261.36 37.8 
L 163.51 37.8 
z
" style="fill: #ffffff"/>
   </g>
   <g id="matplotlib.axis_3">
    <g id="xtick_3">
     <g id="line2d_8">
      <g>
       <use xlink:href="#m4e7bb9d0d6" x="197.609242" y="110.72" style="fill: #222222; stroke: #222222; stroke-width: 0.8"/>
      </g>
     </g>
     <g id="text_6">
      <!-- 0 -->
      <g style="fill: #222222" transform="translate(194.828774 124.893437) scale(0.1 -0.1)">
       <use xlink:href="#Helvetica-30"/>
      </g>
     </g>
    </g>
    <g id="xtick_4">
     <g id="line2d_9">
      <g>
       <use xlink:href="#m4e7bb9d0d6" x="247.028434" y="110.72" style="fill: #222222; stroke: #222222; stroke-width: 0.8"/>
      </g>
     </g>
     <g id="text_7">
      <!-- 5 -->
      <g style="fill: #222222" transform="translate(244.247966 124.893437) scale(0.1 -0.1)">
       <use xlink:href="#Helvetica-35"/>
      </g>
     </g>
    </g>
   </g>
   <g id="matplotlib.axis_4">
    <g id="ytick_3">
     <g id="line2d_10">
      <g>
       <use xlink:href="#m11152ce557" x="163.51" y="86.413333" style="fill: #222222; stroke: #222222; stroke-width: 0.8"/>
      </g>
     </g>
     <g id="text_8">
      <!-- 0 -->
      <g style="fill: #222222" transform="translate(150.949062 90.000052) scale(0.1 -0.1)">
       <use xlink:href="#Helvetica-30"/>
      </g>
     </g>
    </g>
    <g id="ytick_4">
     <g id="line2d_11">
      <g>
       <use xlink:href="#m11152ce557" x="163.51" y="54.004444" style="fill: #222222; stroke: #222222; stroke-width: 0.8"/>
      </g>
     </g>
     <g id="text_9">
      <!-- 2 -->
      <g style="fill: #222222" transform="translate(150.949062 57.591163) scale(0.1 -0.1)">
       <use xlink:href="#Helvetica-32"/>
      </g>
     </g>
    </g>
   </g>
   <g id="line2d_12">
    <path d="M 167.957727 86.413527 
L 182.218977 86.303642 
L 185.606024 86.046585 
L 187.923477 85.668688 
L 189.884399 85.144168 
L 191.667055 84.449748 
L 193.449711 83.502528 
L 195.054102 82.404145 
L 196.658492 81.055745 
L 198.441149 79.260174 
L 200.402071 76.942569 
L 202.541258 74.064937 
L 205.571774 69.572421 
L 210.384945 62.411552 
L 212.167602 60.136712 
L 213.593727 58.646555 
L 214.66332 57.811782 
L 215.554648 57.36763 
L 216.267711 57.223178 
L 216.980773 57.312516 
L 217.693836 57.690277 
L 218.228633 58.203856 
L 218.941695 59.264099 
L 219.654758 60.851653 
L 220.36782 63.099598 
L 221.080883 66.166558 
L 221.793945 70.21152 
L 222.685273 76.765181 
L 223.933133 88.139315 
L 225.359258 100.881709 
L 226.07232 105.529309 
L 226.607117 107.882495 
L 227.141914 109.215517 
L 227.498445 109.564199 
L 227.854976 109.521975 
L 228.211508 109.135977 
L 228.746304 108.029599 
L 229.459367 105.859535 
L 233.024679 93.740257 
L 233.916007 91.734062 
L 234.807336 90.201091 
L 235.698664 89.064972 
L 236.589992 88.243068 
L 237.659586 87.566338 
L 238.907445 87.072613 
L 240.33357 86.753143 
L 242.472757 86.533695 
L 246.03807 86.432466 
L 256.912273 86.413364 
L 256.912273 86.413364 
" clip-path="url(#p7c3d58c8a5)" style="fill: none; stroke: #b30000; stroke-width: 2; stroke-linecap: square"/>
   </g>
   <g id="line2d_13">
    <path d="M 167.957727 86.341493 
L 169.773126 86.290641 
L 171.588525 86.210596 
L 173.403924 86.089077 
L 175.219323 85.911082 
L 177.034722 85.659365 
L 178.850121 85.315359 
L 180.665519 84.860449 
L 182.480918 84.277424 
L 184.296317 83.551853 
L 186.111716 82.673153 
L 187.927115 81.635194 
L 189.742514 80.436386 
L 191.557913 79.079326 
L 193.373312 77.570127 
L 195.188711 75.917598 
L 197.004109 74.132424 
L 198.819508 72.226457 
L 200.634907 70.212189 
L 202.450306 68.102473 
L 204.265705 65.910533 
L 206.081104 63.65034 
L 207.896503 61.337532 
L 209.711902 58.991183 
L 211.527301 56.637073 
L 213.342699 54.313684 
L 215.158098 52.083396 
L 216.973497 50.053811 
L 218.788896 48.419271 
L 220.604295 47.54334 
L 222.419694 48.109772 
L 224.235093 51.159294 
L 226.050492 57.221207 
L 227.865891 65.075496 
L 229.681289 72.533325 
L 231.496688 78.201205 
L 233.312087 81.896804 
L 235.127486 84.066559 
L 236.942885 85.249309 
L 238.758284 85.858821 
L 240.573683 86.158791 
L 242.389082 86.300546 
L 244.204481 86.365051 
L 246.019879 86.393357 
L 247.835278 86.405344 
L 249.650677 86.410244 
L 251.466076 86.412179 
L 253.281475 86.412916 
L 255.096874 86.413187 
L 256.912273 86.41329 
" clip-path="url(#p7c3d58c8a5)" style="fill: none; stroke-dasharray: 2,3.3; stroke-dashoffset: 0; stroke: #222222; stroke-width: 2"/>
   </g>
   <g id="line2d_14">
    <path d="M 163.51 86.413333 
L 261.36 86.413333 
" clip-path="url(#p7c3d58c8a5)" style="fill: none; stroke: #808080; stroke-linecap: square"/>
   </g>
   <g id="patch_6">
    <path d="M 163.51 110.72 
L 163.51 37.8 
" style="fill: none; stroke: #222222; stroke-width: 0.8; stroke-linejoin: miter; stroke-linecap: square"/>
   </g>
   <g id="patch_7">
    <path d="M 163.51 110.72 
L 261.36 110.72 
" style="fill: none; stroke: #222222; stroke-width: 0.8; stroke-linejoin: miter; stroke-linecap: square"/>
   </g>
   <g id="text_10">
    <!-- $c=10$ -->
    <g style="fill: #222222" transform="translate(166.4455 49.360494) scale(0.09 -0.09)">
     <defs>
      <path id="DejaVuSans-31" d="M 794 531 
L 1825 531 
L 1825 4091 
L 703 3866 
L 703 4441 
L 1819 4666 
L 2450 4666 
L 2450 531 
L 3481 531 
L 3481 0 
L 794 0 
L 794 531 
z
" transform="scale(0.015625)"/>
      <path id="DejaVuSans-30" d="M 2034 4250 
Q 1547 4250 1301 3770 
Q 1056 3291 1056 2328 
Q 1056 1369 1301 889 
Q 1547 409 2034 409 
Q 2525 409 2770 889 
Q 3016 1369 3016 2328 
Q 3016 3291 2770 3770 
Q 2525 4250 2034 4250 
z
M 2034 4750 
Q 2819 4750 3233 4129 
Q 3647 3509 3647 2328 
Q 3647 1150 3233 529 
Q 2819 -91 2034 -91 
Q 1250 -91 836 529 
Q 422 1150 422 2328 
Q 422 3509 836 4129 
Q 1250 4750 2034 4750 
z
" transform="scale(0.015625)"/>
     </defs>
     <use xlink:href="#DejaVuSans-Oblique-63" transform="translate(0 0.78125)"/>
     <use xlink:href="#DejaVuSans-3d" transform="translate(74.462891 0.78125)"/>
     <use xlink:href="#DejaVuSans-31" transform="translate(177.734375 0.78125)"/>
     <use xlink:href="#DejaVuSans-30" transform="translate(241.357422 0.78125)"/>
    </g>
   </g>
   <g id="PathCollection_2">
    <g clip-path="url(#p7c3d58c8a5)">
     <use xlink:href="#md6ff0eb3eb" x="216.445976" y="57.221676" style="fill: #b30000; stroke: #b30000"/>
    </g>
   </g>
  </g>
  <g id="axes_3">
   <g id="patch_8">
    <path d="M 36.43 215.48 
L 134.28 215.48 
L 134.28 142.56 
L 36.43 142.56 
z
" style="fill: #ffffff"/>
   </g>
   <g id="matplotlib.axis_5">
    <g id="xtick_5">
     <g id="line2d_15">
      <g>
       <use xlink:href="#m4e7bb9d0d6" x="70.529242" y="215.48" style="fill: #222222; stroke: #222222; stroke-width: 0.8"/>
      </g>
     </g>
     <g id="text_11">
      <!-- 0 -->
      <g style="fill: #222222" transform="translate(67.748774 229.653437) scale(0.1 -0.1)">
       <use xlink:href="#Helvetica-30"/>
      </g>
     </g>
    </g>
    <g id="xtick_6">
     <g id="line2d_16">
      <g>
       <use xlink:href="#m4e7bb9d0d6" x="119.948434" y="215.48" style="fill: #222222; stroke: #222222; stroke-width: 0.8"/>
      </g>
     </g>
     <g id="text_12">
      <!-- 5 -->
      <g style="fill: #222222" transform="translate(117.167966 229.653437) scale(0.1 -0.1)">
       <use xlink:href="#Helvetica-35"/>
      </g>
     </g>
    </g>
   </g>
   <g id="matplotlib.axis_6">
    <g id="ytick_5">
     <g id="line2d_17">
      <g>
       <use xlink:href="#m11152ce557" x="36.43" y="191.173333" style="fill: #222222; stroke: #222222; stroke-width: 0.8"/>
      </g>
     </g>
     <g id="text_13">
      <!-- 0 -->
      <g style="fill: #222222" transform="translate(23.869063 194.760052) scale(0.1 -0.1)">
       <use xlink:href="#Helvetica-30"/>
      </g>
     </g>
    </g>
    <g id="ytick_6">
     <g id="line2d_18">
      <g>
       <use xlink:href="#m11152ce557" x="36.43" y="158.764444" style="fill: #222222; stroke: #222222; stroke-width: 0.8"/>
      </g>
     </g>
     <g id="text_14">
      <!-- 2 -->
      <g style="fill: #222222" transform="translate(23.869063 162.351163) scale(0.1 -0.1)">
       <use xlink:href="#Helvetica-32"/>
      </g>
     </g>
    </g>
   </g>
   <g id="line2d_19">
    <path d="M 40.877727 191.18196 
L 51.395399 191.321266 
L 63.873993 191.599108 
L 67.617571 191.321041 
L 70.826352 191.136508 
L 72.252477 191.252075 
L 73.500336 191.574579 
L 74.56993 192.101178 
L 75.461258 192.783394 
L 76.352586 193.754621 
L 77.243914 195.092939 
L 78.135242 196.893708 
L 79.02657 199.273908 
L 79.917899 202.37783 
L 80.809227 206.384563 
L 81.700555 211.517888 
L 82.591883 218.059354 
L 83.483211 226.365632 
L 84.374539 236.891616 
L 85.265867 250.221285 
L 86.157195 267.109116 
L 86.271459 269.6 
M 110.599426 269.6 
L 111.292648 249.367638 
L 112.005711 233.740723 
L 112.718773 222.128201 
L 113.431835 213.556891 
L 114.144898 207.27044 
L 114.85796 202.687642 
L 115.571023 199.366251 
L 116.284085 196.972678 
L 116.997148 195.257278 
L 117.71021 194.034589 
L 118.601539 192.994253 
L 119.492867 192.32302 
L 120.56246 191.828557 
L 121.81032 191.508496 
L 123.592976 191.298556 
L 126.801757 191.192987 
L 129.832273 191.176445 
L 129.832273 191.176445 
" clip-path="url(#pd54e9941f7)" style="fill: none; stroke: #b30000; stroke-width: 2; stroke-linecap: square"/>
   </g>
   <g id="line2d_20">
    <path d="M 40.877727 191.101493 
L 42.693126 191.050641 
L 44.508525 190.970596 
L 46.323924 190.849077 
L 48.139323 190.671082 
L 49.954722 190.419365 
L 51.770121 190.075359 
L 53.585519 189.620449 
L 55.400918 189.037424 
L 57.216317 188.311853 
L 59.031716 187.433153 
L 60.847115 186.395194 
L 62.662514 185.196386 
L 64.477913 183.839326 
L 66.293312 182.330127 
L 68.108711 180.677598 
L 69.924109 178.892424 
L 71.739508 176.986457 
L 73.554907 174.972189 
L 75.370306 172.862473 
L 77.185705 170.670533 
L 79.001104 168.41034 
L 80.816503 166.097532 
L 82.631902 163.751183 
L 84.447301 161.397073 
L 86.262699 159.073684 
L 88.078098 156.843396 
L 89.893497 154.813811 
L 91.708896 153.179271 
L 93.524295 152.30334 
L 95.339694 152.869772 
L 97.155093 155.919294 
L 98.970492 161.981207 
L 100.785891 169.835496 
L 102.601289 177.293325 
L 104.416688 182.961205 
L 106.232087 186.656804 
L 108.047486 188.826559 
L 109.862885 190.009309 
L 111.678284 190.618821 
L 113.493683 190.918791 
L 115.309082 191.060546 
L 117.124481 191.125051 
L 118.939879 191.153357 
L 120.755278 191.165344 
L 122.570677 191.170244 
L 124.386076 191.172179 
L 126.201475 191.172916 
L 128.016874 191.173187 
L 129.832273 191.17329 
" clip-path="url(#pd54e9941f7)" style="fill: none; stroke-dasharray: 2,3.3; stroke-dashoffset: 0; stroke: #222222; stroke-width: 2"/>
   </g>
   <g id="line2d_21">
    <path d="M 36.43 191.173333 
L 134.28 191.173333 
" clip-path="url(#pd54e9941f7)" style="fill: none; stroke: #808080; stroke-linecap: square"/>
   </g>
   <g id="patch_9">
    <path d="M 36.43 215.48 
L 36.43 142.56 
" style="fill: none; stroke: #222222; stroke-width: 0.8; stroke-linejoin: miter; stroke-linecap: square"/>
   </g>
   <g id="patch_10">
    <path d="M 36.43 215.48 
L 134.28 215.48 
" style="fill: none; stroke: #222222; stroke-width: 0.8; stroke-linejoin: miter; stroke-linecap: square"/>
   </g>
   <g id="text_15">
    <!-- $c=395$ -->
    <g style="fill: #222222" transform="translate(39.3655 154.120494) scale(0.09 -0.09)">
     <defs>
      <path id="DejaVuSans-33" d="M 2597 2516 
Q 3050 2419 3304 2112 
Q 3559 1806 3559 1356 
Q 3559 666 3084 287 
Q 2609 -91 1734 -91 
Q 1441 -91 1130 -33 
Q 819 25 488 141 
L 488 750 
Q 750 597 1062 519 
Q 1375 441 1716 441 
Q 2309 441 2620 675 
Q 2931 909 2931 1356 
Q 2931 1769 2642 2001 
Q 2353 2234 1838 2234 
L 1294 2234 
L 1294 2753 
L 1863 2753 
Q 2328 2753 2575 2939 
Q 2822 3125 2822 3475 
Q 2822 3834 2567 4026 
Q 2313 4219 1838 4219 
Q 1578 4219 1281 4162 
Q 984 4106 628 3988 
L 628 4550 
Q 988 4650 1302 4700 
Q 1616 4750 1894 4750 
Q 2613 4750 3031 4423 
Q 3450 4097 3450 3541 
Q 3450 3153 3228 2886 
Q 3006 2619 2597 2516 
z
" transform="scale(0.015625)"/>
      <path id="DejaVuSans-39" d="M 703 97 
L 703 672 
Q 941 559 1184 500 
Q 1428 441 1663 441 
Q 2288 441 2617 861 
Q 2947 1281 2994 2138 
Q 2813 1869 2534 1725 
Q 2256 1581 1919 1581 
Q 1219 1581 811 2004 
Q 403 2428 403 3163 
Q 403 3881 828 4315 
Q 1253 4750 1959 4750 
Q 2769 4750 3195 4129 
Q 3622 3509 3622 2328 
Q 3622 1225 3098 567 
Q 2575 -91 1691 -91 
Q 1453 -91 1209 -44 
Q 966 3 703 97 
z
M 1959 2075 
Q 2384 2075 2632 2365 
Q 2881 2656 2881 3163 
Q 2881 3666 2632 3958 
Q 2384 4250 1959 4250 
Q 1534 4250 1286 3958 
Q 1038 3666 1038 3163 
Q 1038 2656 1286 2365 
Q 1534 2075 1959 2075 
z
" transform="scale(0.015625)"/>
      <path id="DejaVuSans-35" d="M 691 4666 
L 3169 4666 
L 3169 4134 
L 1269 4134 
L 1269 2991 
Q 1406 3038 1543 3061 
Q 1681 3084 1819 3084 
Q 2600 3084 3056 2656 
Q 3513 2228 3513 1497 
Q 3513 744 3044 326 
Q 2575 -91 1722 -91 
Q 1428 -91 1123 -41 
Q 819 9 494 109 
L 494 744 
Q 775 591 1075 516 
Q 1375 441 1709 441 
Q 2250 441 2565 725 
Q 2881 1009 2881 1497 
Q 2881 1984 2565 2268 
Q 2250 2553 1709 2553 
Q 1456 2553 1204 2497 
Q 953 2441 691 2322 
L 691 4666 
z
" transform="scale(0.015625)"/>
     </defs>
     <use xlink:href="#DejaVuSans-Oblique-63" transform="translate(0 0.78125)"/>
     <use xlink:href="#DejaVuSans-3d" transform="translate(74.462891 0.78125)"/>
     <use xlink:href="#DejaVuSans-33" transform="translate(177.734375 0.78125)"/>
     <use xlink:href="#DejaVuSans-39" transform="translate(241.357422 0.78125)"/>
     <use xlink:href="#DejaVuSans-35" transform="translate(304.980469 0.78125)"/>
    </g>
   </g>
   <g id="PathCollection_3">
    <g clip-path="url(#pd54e9941f7)">
     <use xlink:href="#md6ff0eb3eb" x="70.648086" y="191.13505" style="fill: #b30000; stroke: #b30000"/>
    </g>
   </g>
  </g>
  <g id="axes_4">
   <g id="patch_11">
    <path d="M 163.51 215.48 
L 261.36 215.48 
L 261.36 142.56 
L 163.51 142.56 
z
" style="fill: #ffffff"/>
   </g>
   <g id="matplotlib.axis_7">
    <g id="xtick_7">
     <g id="line2d_22">
      <g>
       <use xlink:href="#m4e7bb9d0d6" x="197.609242" y="215.48" style="fill: #222222; stroke: #222222; stroke-width: 0.8"/>
      </g>
     </g>
     <g id="text_16">
      <!-- 0 -->
      <g style="fill: #222222" transform="translate(194.828774 229.653437) scale(0.1 -0.1)">
       <use xlink:href="#Helvetica-30"/>
      </g>
     </g>
    </g>
    <g id="xtick_8">
     <g id="line2d_23">
      <g>
       <use xlink:href="#m4e7bb9d0d6" x="247.028434" y="215.48" style="fill: #222222; stroke: #222222; stroke-width: 0.8"/>
      </g>
     </g>
     <g id="text_17">
      <!-- 5 -->
      <g style="fill: #222222" transform="translate(244.247966 229.653437) scale(0.1 -0.1)">
       <use xlink:href="#Helvetica-35"/>
      </g>
     </g>
    </g>
   </g>
   <g id="matplotlib.axis_8">
    <g id="ytick_7">
     <g id="line2d_24">
      <g>
       <use xlink:href="#m11152ce557" x="163.51" y="191.173333" style="fill: #222222; stroke: #222222; stroke-width: 0.8"/>
      </g>
     </g>
     <g id="text_18">
      <!-- 0 -->
      <g style="fill: #222222" transform="translate(150.949062 194.760052) scale(0.1 -0.1)">
       <use xlink:href="#Helvetica-30"/>
      </g>
     </g>
    </g>
    <g id="ytick_8">
     <g id="line2d_25">
      <g>
       <use xlink:href="#m11152ce557" x="163.51" y="158.764444" style="fill: #222222; stroke: #222222; stroke-width: 0.8"/>
      </g>
     </g>
     <g id="text_19">
      <!-- 2 -->
      <g style="fill: #222222" transform="translate(150.949062 162.351163) scale(0.1 -0.1)">
       <use xlink:href="#Helvetica-32"/>
      </g>
     </g>
    </g>
   </g>
   <g id="line2d_26">
    <path d="M 167.957727 191.190831 
L 175.801415 191.345825 
L 180.258055 191.65209 
L 183.823368 192.110144 
L 187.210414 192.764015 
L 190.24093 193.563953 
L 192.558383 194.379366 
L 194.341039 195.215356 
L 195.767164 196.099996 
L 197.015024 197.111748 
L 198.084617 198.226742 
L 199.154211 199.64981 
L 200.223805 201.478178 
L 201.293399 203.835664 
L 202.184727 206.316716 
L 203.076055 209.386907 
L 203.967383 213.184776 
L 204.858711 217.880443 
L 205.750039 223.683682 
L 206.641367 230.854445 
L 207.532695 239.716604 
L 208.424024 250.675995 
L 209.315352 264.244151 
L 209.619695 269.6 
M 239.313147 269.6 
L 239.977039 249.3538 
L 240.690101 233.189187 
L 241.403164 221.350814 
L 242.116226 212.732677 
L 242.829289 206.495042 
L 243.542351 202.005732 
L 244.255414 198.792496 
L 244.968476 196.505072 
L 245.681539 194.885429 
L 246.394601 193.744704 
L 247.285929 192.786773 
L 248.177257 192.177736 
L 249.246851 191.736147 
L 250.672976 191.428774 
L 252.812163 191.24853 
L 256.912273 191.179685 
L 256.912273 191.179685 
" clip-path="url(#p3cb27186e0)" style="fill: none; stroke: #b30000; stroke-width: 2; stroke-linecap: square"/>
   </g>
   <g id="line2d_27">
    <path d="M 167.957727 191.101493 
L 169.773126 191.050641 
L 171.588525 190.970596 
L 173.403924 190.849077 
L 175.219323 190.671082 
L 177.034722 190.419365 
L 178.850121 190.075359 
L 180.665519 189.620449 
L 182.480918 189.037424 
L 184.296317 188.311853 
L 186.111716 187.433153 
L 187.927115 186.395194 
L 189.742514 185.196386 
L 191.557913 183.839326 
L 193.373312 182.330127 
L 195.188711 180.677598 
L 197.004109 178.892424 
L 198.819508 176.986457 
L 200.634907 174.972189 
L 202.450306 172.862473 
L 204.265705 170.670533 
L 206.081104 168.41034 
L 207.896503 166.097532 
L 209.711902 163.751183 
L 211.527301 161.397073 
L 213.342699 159.073684 
L 215.158098 156.843396 
L 216.973497 154.813811 
L 218.788896 153.179271 
L 220.604295 152.30334 
L 222.419694 152.869772 
L 224.235093 155.919294 
L 226.050492 161.981207 
L 227.865891 169.835496 
L 229.681289 177.293325 
L 231.496688 182.961205 
L 233.312087 186.656804 
L 235.127486 188.826559 
L 236.942885 190.009309 
L 238.758284 190.618821 
L 240.573683 190.918791 
L 242.389082 191.060546 
L 244.204481 191.125051 
L 246.019879 191.153357 
L 247.835278 191.165344 
L 249.650677 191.170244 
L 251.466076 191.172179 
L 253.281475 191.172916 
L 255.096874 191.173187 
L 256.912273 191.17329 
" clip-path="url(#p3cb27186e0)" style="fill: none; stroke-dasharray: 2,3.3; stroke-dashoffset: 0; stroke: #222222; stroke-width: 2"/>
   </g>
   <g id="line2d_28">
    <path d="M 163.51 191.173333 
L 261.36 191.173333 
" clip-path="url(#p3cb27186e0)" style="fill: none; stroke: #808080; stroke-linecap: square"/>
   </g>
   <g id="patch_12">
    <path d="M 163.51 215.48 
L 163.51 142.56 
" style="fill: none; stroke: #222222; stroke-width: 0.8; stroke-linejoin: miter; stroke-linecap: square"/>
   </g>
   <g id="patch_13">
    <path d="M 163.51 215.48 
L 261.36 215.48 
" style="fill: none; stroke: #222222; stroke-width: 0.8; stroke-linejoin: miter; stroke-linecap: square"/>
   </g>
   <g id="text_20">
    <!-- $c=800$ -->
    <g style="fill: #222222" transform="translate(166.4455 154.120494) scale(0.09 -0.09)">
     <defs>
      <path id="DejaVuSans-38" d="M 2034 2216 
Q 1584 2216 1326 1975 
Q 1069 1734 1069 1313 
Q 1069 891 1326 650 
Q 1584 409 2034 409 
Q 2484 409 2743 651 
Q 3003 894 3003 1313 
Q 3003 1734 2745 1975 
Q 2488 2216 2034 2216 
z
M 1403 2484 
Q 997 2584 770 2862 
Q 544 3141 544 3541 
Q 544 4100 942 4425 
Q 1341 4750 2034 4750 
Q 2731 4750 3128 4425 
Q 3525 4100 3525 3541 
Q 3525 3141 3298 2862 
Q 3072 2584 2669 2484 
Q 3125 2378 3379 2068 
Q 3634 1759 3634 1313 
Q 3634 634 3220 271 
Q 2806 -91 2034 -91 
Q 1263 -91 848 271 
Q 434 634 434 1313 
Q 434 1759 690 2068 
Q 947 2378 1403 2484 
z
M 1172 3481 
Q 1172 3119 1398 2916 
Q 1625 2713 2034 2713 
Q 2441 2713 2670 2916 
Q 2900 3119 2900 3481 
Q 2900 3844 2670 4047 
Q 2441 4250 2034 4250 
Q 1625 4250 1398 4047 
Q 1172 3844 1172 3481 
z
" transform="scale(0.015625)"/>
     </defs>
     <use xlink:href="#DejaVuSans-Oblique-63" transform="translate(0 0.78125)"/>
     <use xlink:href="#DejaVuSans-3d" transform="translate(74.462891 0.78125)"/>
     <use xlink:href="#DejaVuSans-38" transform="translate(177.734375 0.78125)"/>
     <use xlink:href="#DejaVuSans-30" transform="translate(241.357422 0.78125)"/>
     <use xlink:href="#DejaVuSans-30" transform="translate(304.980469 0.78125)"/>
    </g>
   </g>
   <g id="PathCollection_4">
    <g clip-path="url(#p3cb27186e0)">
     <use xlink:href="#md6ff0eb3eb" x="167.957727" y="191.190831" style="fill: #b30000; stroke: #b30000"/>
    </g>
   </g>
  </g>
  <g id="text_21">
   <!-- Expected reward per time step -->
   <g style="fill: #222222" transform="translate(14.396875 190.205469) rotate(-90) scale(0.1 -0.1)">
    <defs>
     <path id="Helvetica-45" d="M 547 4591 
L 3894 4591 
L 3894 4028 
L 1153 4028 
L 1153 2634 
L 3688 2634 
L 3688 2103 
L 1153 2103 
L 1153 547 
L 3941 547 
L 3941 0 
L 547 0 
L 547 4591 
z
M 2244 4591 
L 2244 4591 
z
" transform="scale(0.015625)"/>
     <path id="Helvetica-78" d="M 94 3347 
L 822 3347 
L 1591 2169 
L 2369 3347 
L 3053 3331 
L 1925 1716 
L 3103 0 
L 2384 0 
L 1553 1256 
L 747 0 
L 34 0 
L 1213 1716 
L 94 3347 
z
" transform="scale(0.015625)"/>
     <path id="Helvetica-70" d="M 1825 378 
Q 2219 378 2480 708 
Q 2741 1038 2741 1694 
Q 2741 2094 2625 2381 
Q 2406 2934 1825 2934 
Q 1241 2934 1025 2350 
Q 909 2038 909 1556 
Q 909 1169 1025 897 
Q 1244 378 1825 378 
z
M 369 3331 
L 916 3331 
L 916 2888 
Q 1084 3116 1284 3241 
Q 1569 3428 1953 3428 
Q 2522 3428 2919 2992 
Q 3316 2556 3316 1747 
Q 3316 653 2744 184 
Q 2381 -113 1900 -113 
Q 1522 -113 1266 53 
Q 1116 147 931 375 
L 931 -1334 
L 369 -1334 
L 369 3331 
z
" transform="scale(0.015625)"/>
     <path id="Helvetica-65" d="M 1806 3422 
Q 2163 3422 2497 3255 
Q 2831 3088 3006 2822 
Q 3175 2569 3231 2231 
Q 3281 2000 3281 1494 
L 828 1494 
Q 844 984 1069 676 
Q 1294 369 1766 369 
Q 2206 369 2469 659 
Q 2619 828 2681 1050 
L 3234 1050 
Q 3213 866 3089 639 
Q 2966 413 2813 269 
Q 2556 19 2178 -69 
Q 1975 -119 1719 -119 
Q 1094 -119 659 336 
Q 225 791 225 1609 
Q 225 2416 662 2919 
Q 1100 3422 1806 3422 
z
M 2703 1941 
Q 2669 2306 2544 2525 
Q 2313 2931 1772 2931 
Q 1384 2931 1121 2651 
Q 859 2372 844 1941 
L 2703 1941 
z
M 1753 3428 
L 1753 3428 
z
" transform="scale(0.015625)"/>
     <path id="Helvetica-63" d="M 1703 3444 
Q 2269 3444 2623 3169 
Q 2978 2894 3050 2222 
L 2503 2222 
Q 2453 2531 2275 2736 
Q 2097 2941 1703 2941 
Q 1166 2941 934 2416 
Q 784 2075 784 1575 
Q 784 1072 996 728 
Q 1209 384 1666 384 
Q 2016 384 2220 598 
Q 2425 813 2503 1184 
L 3050 1184 
Q 2956 519 2581 211 
Q 2206 -97 1622 -97 
Q 966 -97 575 383 
Q 184 863 184 1581 
Q 184 2463 612 2953 
Q 1041 3444 1703 3444 
z
M 1616 3428 
L 1616 3428 
z
" transform="scale(0.015625)"/>
     <path id="Helvetica-74" d="M 525 4281 
L 1094 4281 
L 1094 3347 
L 1628 3347 
L 1628 2888 
L 1094 2888 
L 1094 703 
Q 1094 528 1213 469 
Q 1278 434 1431 434 
Q 1472 434 1519 436 
Q 1566 438 1628 444 
L 1628 0 
Q 1531 -28 1426 -40 
Q 1322 -53 1200 -53 
Q 806 -53 665 148 
Q 525 350 525 672 
L 525 2888 
L 72 2888 
L 72 3347 
L 525 3347 
L 525 4281 
z
" transform="scale(0.015625)"/>
     <path id="Helvetica-64" d="M 769 1634 
Q 769 1097 997 734 
Q 1225 372 1728 372 
Q 2119 372 2370 708 
Q 2622 1044 2622 1672 
Q 2622 2306 2362 2611 
Q 2103 2916 1722 2916 
Q 1297 2916 1033 2591 
Q 769 2266 769 1634 
z
M 1616 3406 
Q 2000 3406 2259 3244 
Q 2409 3150 2600 2916 
L 2600 4606 
L 3141 4606 
L 3141 0 
L 2634 0 
L 2634 466 
Q 2438 156 2169 18 
Q 1900 -119 1553 -119 
Q 994 -119 584 351 
Q 175 822 175 1603 
Q 175 2334 548 2870 
Q 922 3406 1616 3406 
z
" transform="scale(0.015625)"/>
     <path id="Helvetica-20" transform="scale(0.015625)"/>
     <path id="Helvetica-72" d="M 428 3347 
L 963 3347 
L 963 2769 
Q 1028 2938 1284 3180 
Q 1541 3422 1875 3422 
Q 1891 3422 1928 3419 
Q 1966 3416 2056 3406 
L 2056 2813 
Q 2006 2822 1964 2825 
Q 1922 2828 1872 2828 
Q 1447 2828 1219 2554 
Q 991 2281 991 1925 
L 991 0 
L 428 0 
L 428 3347 
z
" transform="scale(0.015625)"/>
     <path id="Helvetica-77" d="M 672 3347 
L 1316 709 
L 1969 3347 
L 2600 3347 
L 3256 725 
L 3941 3347 
L 4503 3347 
L 3531 0 
L 2947 0 
L 2266 2591 
L 1606 0 
L 1022 0 
L 56 3347 
L 672 3347 
z
" transform="scale(0.015625)"/>
     <path id="Helvetica-61" d="M 844 891 
Q 844 647 1022 506 
Q 1200 366 1444 366 
Q 1741 366 2019 503 
Q 2488 731 2488 1250 
L 2488 1703 
Q 2384 1638 2221 1594 
Q 2059 1550 1903 1531 
L 1563 1488 
Q 1256 1447 1103 1359 
Q 844 1213 844 891 
z
M 2206 2028 
Q 2400 2053 2466 2191 
Q 2503 2266 2503 2406 
Q 2503 2694 2298 2823 
Q 2094 2953 1713 2953 
Q 1272 2953 1088 2716 
Q 984 2584 953 2325 
L 428 2325 
Q 444 2944 830 3186 
Q 1216 3428 1725 3428 
Q 2316 3428 2684 3203 
Q 3050 2978 3050 2503 
L 3050 575 
Q 3050 488 3086 434 
Q 3122 381 3238 381 
Q 3275 381 3322 386 
Q 3369 391 3422 400 
L 3422 -16 
Q 3291 -53 3222 -62 
Q 3153 -72 3034 -72 
Q 2744 -72 2613 134 
Q 2544 244 2516 444 
Q 2344 219 2022 53 
Q 1700 -113 1313 -113 
Q 847 -113 551 170 
Q 256 453 256 878 
Q 256 1344 547 1600 
Q 838 1856 1309 1916 
L 2206 2028 
z
M 1741 3428 
L 1741 3428 
z
" transform="scale(0.015625)"/>
     <path id="Helvetica-69" d="M 413 3331 
L 984 3331 
L 984 0 
L 413 0 
L 413 3331 
z
M 413 4591 
L 984 4591 
L 984 3953 
L 413 3953 
L 413 4591 
z
" transform="scale(0.015625)"/>
     <path id="Helvetica-6d" d="M 413 3347 
L 969 3347 
L 969 2872 
Q 1169 3119 1331 3231 
Q 1609 3422 1963 3422 
Q 2363 3422 2606 3225 
Q 2744 3113 2856 2894 
Q 3044 3163 3297 3292 
Q 3550 3422 3866 3422 
Q 4541 3422 4784 2934 
Q 4916 2672 4916 2228 
L 4916 0 
L 4331 0 
L 4331 2325 
Q 4331 2659 4164 2784 
Q 3997 2909 3756 2909 
Q 3425 2909 3186 2687 
Q 2947 2466 2947 1947 
L 2947 0 
L 2375 0 
L 2375 2184 
Q 2375 2525 2294 2681 
Q 2166 2916 1816 2916 
Q 1497 2916 1236 2669 
Q 975 2422 975 1775 
L 975 0 
L 413 0 
L 413 3347 
z
" transform="scale(0.015625)"/>
     <path id="Helvetica-73" d="M 747 1050 
Q 772 769 888 619 
Q 1100 347 1625 347 
Q 1938 347 2175 483 
Q 2413 619 2413 903 
Q 2413 1119 2222 1231 
Q 2100 1300 1741 1391 
L 1294 1503 
Q 866 1609 663 1741 
Q 300 1969 300 2372 
Q 300 2847 642 3140 
Q 984 3434 1563 3434 
Q 2319 3434 2653 2991 
Q 2863 2709 2856 2384 
L 2325 2384 
Q 2309 2575 2191 2731 
Q 1997 2953 1519 2953 
Q 1200 2953 1036 2831 
Q 872 2709 872 2509 
Q 872 2291 1088 2159 
Q 1213 2081 1456 2022 
L 1828 1931 
Q 2434 1784 2641 1647 
Q 2969 1431 2969 969 
Q 2969 522 2630 197 
Q 2291 -128 1597 -128 
Q 850 -128 539 211 
Q 228 550 206 1050 
L 747 1050 
z
M 1578 3428 
L 1578 3428 
z
" transform="scale(0.015625)"/>
    </defs>
    <use xlink:href="#Helvetica-45"/>
    <use xlink:href="#Helvetica-78" transform="translate(66.699219 0)"/>
    <use xlink:href="#Helvetica-70" transform="translate(116.699219 0)"/>
    <use xlink:href="#Helvetica-65" transform="translate(172.314453 0)"/>
    <use xlink:href="#Helvetica-63" transform="translate(227.929688 0)"/>
    <use xlink:href="#Helvetica-74" transform="translate(277.929688 0)"/>
    <use xlink:href="#Helvetica-65" transform="translate(305.712891 0)"/>
    <use xlink:href="#Helvetica-64" transform="translate(361.328125 0)"/>
    <use xlink:href="#Helvetica-20" transform="translate(416.943359 0)"/>
    <use xlink:href="#Helvetica-72" transform="translate(444.726562 0)"/>
    <use xlink:href="#Helvetica-65" transform="translate(478.027344 0)"/>
    <use xlink:href="#Helvetica-77" transform="translate(533.642578 0)"/>
    <use xlink:href="#Helvetica-61" transform="translate(605.859375 0)"/>
    <use xlink:href="#Helvetica-72" transform="translate(661.474609 0)"/>
    <use xlink:href="#Helvetica-64" transform="translate(694.775391 0)"/>
    <use xlink:href="#Helvetica-20" transform="translate(750.390625 0)"/>
    <use xlink:href="#Helvetica-70" transform="translate(778.173828 0)"/>
    <use xlink:href="#Helvetica-65" transform="translate(833.789062 0)"/>
    <use xlink:href="#Helvetica-72" transform="translate(889.404297 0)"/>
    <use xlink:href="#Helvetica-20" transform="translate(922.705078 0)"/>
    <use xlink:href="#Helvetica-74" transform="translate(950.488281 0)"/>
    <use xlink:href="#Helvetica-69" transform="translate(978.271484 0)"/>
    <use xlink:href="#Helvetica-6d" transform="translate(1000.488281 0)"/>
    <use xlink:href="#Helvetica-65" transform="translate(1083.789062 0)"/>
    <use xlink:href="#Helvetica-20" transform="translate(1139.404297 0)"/>
    <use xlink:href="#Helvetica-73" transform="translate(1167.1875 0)"/>
    <use xlink:href="#Helvetica-74" transform="translate(1217.1875 0)"/>
    <use xlink:href="#Helvetica-65" transform="translate(1244.970703 0)"/>
    <use xlink:href="#Helvetica-70" transform="translate(1300.585938 0)"/>
   </g>
  </g>
  <g id="text_22">
   <!-- Satisfaction threshold -->
   <g style="fill: #222222" transform="translate(94.757656 246.24) scale(0.1 -0.1)">
    <defs>
     <path id="Helvetica-53" d="M 894 1481 
Q 916 1091 1078 847 
Q 1388 391 2169 391 
Q 2519 391 2806 491 
Q 3363 684 3363 1184 
Q 3363 1559 3128 1719 
Q 2891 1875 2384 1991 
L 1763 2131 
Q 1153 2269 900 2434 
Q 463 2722 463 3294 
Q 463 3913 891 4309 
Q 1319 4706 2103 4706 
Q 2825 4706 3329 4357 
Q 3834 4009 3834 3244 
L 3250 3244 
Q 3203 3613 3050 3809 
Q 2766 4169 2084 4169 
Q 1534 4169 1293 3937 
Q 1053 3706 1053 3400 
Q 1053 3063 1334 2906 
Q 1519 2806 2169 2656 
L 2813 2509 
Q 3278 2403 3531 2219 
Q 3969 1897 3969 1284 
Q 3969 522 3414 194 
Q 2859 -134 2125 -134 
Q 1269 -134 784 303 
Q 300 738 309 1481 
L 894 1481 
z
M 2150 4716 
L 2150 4716 
z
" transform="scale(0.015625)"/>
     <path id="Helvetica-66" d="M 553 3856 
Q 566 4206 675 4369 
Q 872 4656 1434 4656 
Q 1488 4656 1544 4653 
Q 1600 4650 1672 4644 
L 1672 4131 
Q 1584 4138 1545 4139 
Q 1506 4141 1472 4141 
Q 1216 4141 1166 4008 
Q 1116 3875 1116 3331 
L 1672 3331 
L 1672 2888 
L 1109 2888 
L 1109 0 
L 553 0 
L 553 2888 
L 88 2888 
L 88 3331 
L 553 3331 
L 553 3856 
z
" transform="scale(0.015625)"/>
     <path id="Helvetica-6f" d="M 1741 363 
Q 2300 363 2508 786 
Q 2716 1209 2716 1728 
Q 2716 2197 2566 2491 
Q 2328 2953 1747 2953 
Q 1231 2953 997 2559 
Q 763 2166 763 1609 
Q 763 1075 997 719 
Q 1231 363 1741 363 
z
M 1763 3444 
Q 2409 3444 2856 3012 
Q 3303 2581 3303 1744 
Q 3303 934 2909 406 
Q 2516 -122 1688 -122 
Q 997 -122 590 345 
Q 184 813 184 1600 
Q 184 2444 612 2944 
Q 1041 3444 1763 3444 
z
M 1744 3428 
L 1744 3428 
z
" transform="scale(0.015625)"/>
     <path id="Helvetica-6e" d="M 413 3347 
L 947 3347 
L 947 2872 
Q 1184 3166 1450 3294 
Q 1716 3422 2041 3422 
Q 2753 3422 3003 2925 
Q 3141 2653 3141 2147 
L 3141 0 
L 2569 0 
L 2569 2109 
Q 2569 2416 2478 2603 
Q 2328 2916 1934 2916 
Q 1734 2916 1606 2875 
Q 1375 2806 1200 2600 
Q 1059 2434 1017 2257 
Q 975 2081 975 1753 
L 975 0 
L 413 0 
L 413 3347 
z
M 1734 3428 
L 1734 3428 
z
" transform="scale(0.015625)"/>
     <path id="Helvetica-68" d="M 413 4606 
L 975 4606 
L 975 2894 
Q 1175 3147 1334 3250 
Q 1606 3428 2013 3428 
Q 2741 3428 3000 2919 
Q 3141 2641 3141 2147 
L 3141 0 
L 2563 0 
L 2563 2109 
Q 2563 2478 2469 2650 
Q 2316 2925 1894 2925 
Q 1544 2925 1259 2684 
Q 975 2444 975 1775 
L 975 0 
L 413 0 
L 413 4606 
z
" transform="scale(0.015625)"/>
     <path id="Helvetica-6c" d="M 428 4591 
L 991 4591 
L 991 0 
L 428 0 
L 428 4591 
z
" transform="scale(0.015625)"/>
    </defs>
    <use xlink:href="#Helvetica-53"/>
    <use xlink:href="#Helvetica-61" transform="translate(66.699219 0)"/>
    <use xlink:href="#Helvetica-74" transform="translate(122.314453 0)"/>
    <use xlink:href="#Helvetica-69" transform="translate(150.097656 0)"/>
    <use xlink:href="#Helvetica-73" transform="translate(172.314453 0)"/>
    <use xlink:href="#Helvetica-66" transform="translate(222.314453 0)"/>
    <use xlink:href="#Helvetica-61" transform="translate(250.097656 0)"/>
    <use xlink:href="#Helvetica-63" transform="translate(305.712891 0)"/>
    <use xlink:href="#Helvetica-74" transform="translate(355.712891 0)"/>
    <use xlink:href="#Helvetica-69" transform="translate(383.496094 0)"/>
    <use xlink:href="#Helvetica-6f" transform="translate(405.712891 0)"/>
    <use xlink:href="#Helvetica-6e" transform="translate(461.328125 0)"/>
    <use xlink:href="#Helvetica-20" transform="translate(516.943359 0)"/>
    <use xlink:href="#Helvetica-74" transform="translate(544.726562 0)"/>
    <use xlink:href="#Helvetica-68" transform="translate(572.509766 0)"/>
    <use xlink:href="#Helvetica-72" transform="translate(628.125 0)"/>
    <use xlink:href="#Helvetica-65" transform="translate(661.425781 0)"/>
    <use xlink:href="#Helvetica-73" transform="translate(717.041016 0)"/>
    <use xlink:href="#Helvetica-68" transform="translate(767.041016 0)"/>
    <use xlink:href="#Helvetica-6f" transform="translate(822.65625 0)"/>
    <use xlink:href="#Helvetica-6c" transform="translate(878.271484 0)"/>
    <use xlink:href="#Helvetica-64" transform="translate(900.488281 0)"/>
   </g>
  </g>
  <g id="text_23">
   <!-- Search costs -->
   <g style="fill: #222222" transform="translate(93.48 15.808125) scale(0.12 -0.12)">
    <use xlink:href="#Helvetica-53"/>
    <use xlink:href="#Helvetica-65" transform="translate(66.699219 0)"/>
    <use xlink:href="#Helvetica-61" transform="translate(122.314453 0)"/>
    <use xlink:href="#Helvetica-72" transform="translate(177.929688 0)"/>
    <use xlink:href="#Helvetica-63" transform="translate(211.230469 0)"/>
    <use xlink:href="#Helvetica-68" transform="translate(261.230469 0)"/>
    <use xlink:href="#Helvetica-20" transform="translate(316.845703 0)"/>
    <use xlink:href="#Helvetica-63" transform="translate(344.628906 0)"/>
    <use xlink:href="#Helvetica-6f" transform="translate(394.628906 0)"/>
    <use xlink:href="#Helvetica-73" transform="translate(450.244141 0)"/>
    <use xlink:href="#Helvetica-74" transform="translate(500.244141 0)"/>
    <use xlink:href="#Helvetica-73" transform="translate(528.027344 0)"/>
   </g>
  </g>
  <g id="legend_1">
   <g id="line2d_29">
    <path d="M 203.46 239.757812 
L 213.46 239.757812 
L 223.46 239.757812 
" style="fill: none; stroke-dasharray: 2,3.3; stroke-dashoffset: 0; stroke: #222222; stroke-width: 2"/>
   </g>
   <g id="text_24">
    <!-- No cost -->
    <g transform="translate(231.46 243.257812) scale(0.1 -0.1)">
     <defs>
      <path id="Helvetica-4e" d="M 488 4591 
L 1222 4591 
L 3541 872 
L 3541 4591 
L 4131 4591 
L 4131 0 
L 3434 0 
L 1081 3716 
L 1081 0 
L 488 0 
L 488 4591 
z
M 2269 4591 
L 2269 4591 
z
" transform="scale(0.015625)"/>
     </defs>
     <use xlink:href="#Helvetica-4e"/>
     <use xlink:href="#Helvetica-6f" transform="translate(72.216797 0)"/>
     <use xlink:href="#Helvetica-20" transform="translate(127.832031 0)"/>
     <use xlink:href="#Helvetica-63" transform="translate(155.615234 0)"/>
     <use xlink:href="#Helvetica-6f" transform="translate(205.615234 0)"/>
     <use xlink:href="#Helvetica-73" transform="translate(261.230469 0)"/>
     <use xlink:href="#Helvetica-74" transform="translate(311.230469 0)"/>
    </g>
   </g>
   <g id="line2d_30">
    <path d="M 203.46 254.015625 
L 213.46 254.015625 
L 223.46 254.015625 
" style="fill: none; stroke: #b30000; stroke-width: 2; stroke-linecap: square"/>
   </g>
   <g id="text_25">
    <!-- Cost $c$ -->
    <g transform="translate(231.46 257.515625) scale(0.1 -0.1)">
     <defs>
      <path id="Helvetica-43" d="M 2422 4716 
Q 3294 4716 3775 4256 
Q 4256 3797 4309 3213 
L 3703 3213 
Q 3600 3656 3292 3915 
Q 2984 4175 2428 4175 
Q 1750 4175 1333 3698 
Q 916 3222 916 2238 
Q 916 1431 1292 929 
Q 1669 428 2416 428 
Q 3103 428 3463 956 
Q 3653 1234 3747 1688 
L 4353 1688 
Q 4272 963 3816 472 
Q 3269 -119 2341 -119 
Q 1541 -119 997 366 
Q 281 1006 281 2344 
Q 281 3359 819 4009 
Q 1400 4716 2422 4716 
z
M 2297 4716 
L 2297 4716 
z
" transform="scale(0.015625)"/>
     </defs>
     <use xlink:href="#Helvetica-43" transform="translate(0 0.3125)"/>
     <use xlink:href="#Helvetica-6f" transform="translate(72.216797 0.3125)"/>
     <use xlink:href="#Helvetica-73" transform="translate(127.832031 0.3125)"/>
     <use xlink:href="#Helvetica-74" transform="translate(177.832031 0.3125)"/>
     <use xlink:href="#Helvetica-20" transform="translate(205.615234 0.3125)"/>
     <use xlink:href="#DejaVuSans-Oblique-63" transform="translate(233.398438 0.3125)"/>
    </g>
   </g>
  </g>
 </g>
 <defs>
  <clipPath id="paae46d6a31">
   <rect x="36.43" y="37.8" width="97.85" height="72.92"/>
  </clipPath>
  <clipPath id="p7c3d58c8a5">
   <rect x="163.51" y="37.8" width="97.85" height="72.92"/>
  </clipPath>
  <clipPath id="pd54e9941f7">
   <rect x="36.43" y="142.56" width="97.85" height="72.92"/>
  </clipPath>
  <clipPath id="p3cb27186e0">
   <rect x="163.51" y="142.56" width="97.85" height="72.92"/>
  </clipPath>
 </defs>
</svg>
